<svg xmlns="http://www.w3.org/2000/svg" version="1.1" xmlns:xlink="http://www.w3.org/1999/xlink" xmlns:svgjs="http://svgjs.com/svgjs" width="512" height="512" x="0" y="0" viewBox="0 0 64 64" style="enable-background:new 0 0 512 512" xml:space="preserve" class=""><g><g id="_03_Credit_Card" data-name="03 Credit Card"><rect fill="#26a6fe" height="31" rx="3" width="51" x="2" y="12" data-original="#26a6fe" class=""></rect><path d="m46 18h-37c-3.8906-.0546-3.8924 6.0541 0 6h37c3.8906.0546 3.8924-6.0541 0-6z" fill="#46464e" data-original="#46464e"></path><path d="m47.0042 29.0356-39.0134-.0356a3.0087 3.0087 0 0 0 -2.9918 3.0018l.001 2.9637a3 3 0 0 0 2.9971 2.9989l39.0116.0356h.0029a3.0084 3.0084 0 0 0 2.9884-3.0018v-2.964a2.9986 2.9986 0 0 0 -2.9958-2.9986z" fill="#46464e" data-original="#46464e"></path><rect fill="#ff3c38" height="31" rx="3" width="51" x="11" y="21" data-original="#ff3c38" class=""></rect><path d="m53.5 26h-5c-3.2422-.0454-3.2438 5.045 0 5h5c3.2422.0454 3.2438-5.045 0-5zm0 3h-5a.5.5 0 0 1 0-1h5a.5.5 0 0 1 0 1z" fill="#eeeeee" data-original="#eeeeee"></path><path d="m21 34h-2a3.0033 3.0033 0 0 1 -3-3v-2a3.0033 3.0033 0 0 1 3-3h2a3.0033 3.0033 0 0 1 3 3v2a3.0033 3.0033 0 0 1 -3 3zm-2-6a1.0013 1.0013 0 0 0 -1 1v2a1.0013 1.0013 0 0 0 1 1h2a1.0013 1.0013 0 0 0 1-1v-2a1.0013 1.0013 0 0 0 -1-1z" fill="#eeeeee" data-original="#eeeeee"></path><path d="m62 44v2h-51v-2z" fill="#46464e" data-original="#46464e"></path><g fill="#eee"><path d="m23 42h-3a1 1 0 0 1 0-2h3a1 1 0 0 1 0 2z" fill="#eeeeee" data-original="#eeeeee"></path><path d="m29 42h-3a1 1 0 0 1 0-2h3a1 1 0 0 1 0 2z" fill="#eeeeee" data-original="#eeeeee"></path><path d="m35 42h-3a1 1 0 0 1 0-2h3a1 1 0 0 1 0 2z" fill="#eeeeee" data-original="#eeeeee"></path><path d="m41 42h-3a1 1 0 0 1 0-2h3a1 1 0 0 1 0 2z" fill="#eeeeee" data-original="#eeeeee"></path><path d="m47 42h-3a1 1 0 0 1 0-2h3a1 1 0 0 1 0 2z" fill="#eeeeee" data-original="#eeeeee"></path><path d="m53 42h-3a1 1 0 0 1 0-2h3a1 1 0 0 1 0 2z" fill="#eeeeee" data-original="#eeeeee"></path><path d="m55 34h-18a1 1 0 0 1 0-2h18a1 1 0 0 1 0 2z" fill="#eeeeee" data-original="#eeeeee"></path></g></g></g></svg>